<svg aria-hidden="true" style="position:absolute;width:0;height:0;overflow:hidden" xmlns="http://www.w3.org/2000/svg">
<defs>
<symbol id="cart" viewBox="0 0 32 32">
<path d="M31.298 7.798c-.607-.741-1.55-1.192-2.527-1.192H8.254l-.64-2.384C7.243 2.836 5.964 1.87 4.48 1.87H1.044c-.572 0-1.045.45-1.045.999 0 .547.471.999 1.045.999H4.48c.505 0 .944.322 1.078.805l4.11 15.658c.371 1.386 1.65 2.352 3.134 2.352h13.442c1.482 0 2.797-.967 3.133-2.352l2.527-9.923c.236-.904.034-1.87-.607-2.611zm-1.447 2.158-2.527 9.923c-.134.483-.572.805-1.078.805H12.803c-.505 0-.944-.322-1.078-.805L8.794 8.636h19.979c.337 0 .674.161.876.419.201.257.301.579.201.901zM13.511 23.97c-1.92 0-3.503 1.514-3.503 3.35s1.583 3.35 3.503 3.35c1.92.001 3.503-1.513 3.503-3.349s-1.583-3.351-3.503-3.351zm0 4.672c-.775 0-1.382-.58-1.382-1.321S12.736 26 13.511 26c.775 0 1.382.58 1.382 1.321-.001.71-.641 1.321-1.382 1.321zM25.1 23.97c-1.92 0-3.503 1.514-3.503 3.35s1.583 3.35 3.503 3.35c1.92 0 3.503-1.514 3.503-3.35-.033-1.835-1.583-3.35-3.503-3.35zm0 4.672c-.775 0-1.382-.58-1.382-1.321S24.325 26 25.1 26c.775 0 1.382.58 1.382 1.321 0 .71-.641 1.321-1.382 1.321z"/>
</symbol>
<symbol id="chevron" viewBox="0 0 8 4" fill="none">
<path d="M1 3.5L4 0.5L7 3.5" stroke="black" stroke-linecap="round" stroke-linejoin="round"/>
</symbol>
</defs>
</svg>