<svg width="41" height="41" fill="none" xmlns="http://www.w3.org/2000/svg"><g clip-path="url(#a)"><path d="M34.0222 28.6646c.0272.3184-.2213.592-.5376.592H7.46924c-.31551 0-.56371-.2723-.53768-.5901L8.7959 5.91227c.0232-.28265.25697-.50016.53782-.50016H31.5426c.28 0 .5135.21642.5375.49825l1.9421 22.75424Z" fill="#1DCF65"/><path d="M36.0988 34.6014c.0325.3971-.2777.7376-.672.7376H5.59438c-.39348 0-.70346-.3388-.6723-.7353L7.06376 7.34718c.02792-.35448.3205-.62745.6723-.62745H33.1958c.351 0 .6433.27188.6722.62526l2.2308 27.25641Z" fill="url(#b)"/><path d="M19.9232 26.6953c-3.883 0-7.0419-3.8322-7.0419-8.5425 0-.2453.1969-.4443.4398-.4443.2429 0 .4397.1988.4397.4443 0 4.2204 2.7645 7.6539 6.1626 7.6539 3.398 0 6.1625-3.4335 6.1625-7.6539 0-.2453.1968-.4443.4398-.4443.2429 0 .4397.1988.4397.4443-.0001 4.7103-3.1592 8.5425-7.0422 8.5425Z" fill="#fff"/><path d="M24.2581 18.0337c-.1125 0-.225-.0433-.311-.1301-.1717-.1735-.1717-.4548 0-.6283l2.2789-2.3024c.0824-.0832.1943-.1301.3109-.1301.1167 0 .2285.0467.311.1301l2.2566 2.28c.1717.1735.1717.4548 0 .6283-.1718.1734-.4502.1735-.6219 0l-1.9458-1.9657-1.9678 1.9881c-.0859.0868-.1984.1301-.3109.1301Z" fill="#fff"/></g><defs><linearGradient id="b" x1="29.8733" y1="31.3337" x2="11.5132" y2="9.9008" gradientUnits="userSpaceOnUse"><stop stop-color="#52D67A"/><stop offset="1" stop-color="#5AEE87"/></linearGradient><clipPath id="a"><path fill="#fff" transform="translate(4.91992 5.41211)" d="M0 0h31.16v30.176H0z"/></clipPath></defs></svg>